<?xml version="1.0" encoding="utf-8"?>
<svg version="1.1" id="Layer_1" xmlns="http://www.w3.org/2000/svg" xmlns:xlink="http://www.w3.org/1999/xlink" x="0px" y="0px"
	 viewBox="0 0 1920 1080" style="enable-background:new 0 0 1920 1080;" xml:space="preserve">
<style type="text/css">
	.st0{clip-path:url(#SVGID_00000016793630218010521970000008630010683602110091_);fill:#92AFDD;}
	.st1{opacity:0.58;clip-path:url(#SVGID_00000016793630218010521970000008630010683602110091_);}
	.st2{fill:#C9DCF2;}
	.st3{fill:#BBD3F9;}
	.st4{clip-path:url(#SVGID_00000016793630218010521970000008630010683602110091_);fill:#606782;}
	.st5{clip-path:url(#SVGID_00000016793630218010521970000008630010683602110091_);fill:#5B6185;}
	.st6{clip-path:url(#SVGID_00000016793630218010521970000008630010683602110091_);}
	.st7{fill-rule:evenodd;clip-rule:evenodd;fill:#282F49;}
	.st8{fill-rule:evenodd;clip-rule:evenodd;fill:#2B2936;}
	.st9{opacity:0.17;clip-path:url(#SVGID_00000016793630218010521970000008630010683602110091_);fill:#A6B8D1;}
	.st10{fill:#484D73;}
	.st11{fill:#4E5882;}
	.st12{fill:#42486C;}
	.st13{fill:#515777;}
</style>
<g>
	<defs>
		<rect id="SVGID_1_" width="1920" height="1080"/>
	</defs>
	<clipPath id="SVGID_00000174589641154763648730000013782689829752220344_">
		<use xlink:href="#SVGID_1_"  style="overflow:visible;"/>
	</clipPath>
	
		<rect style="clip-path:url(#SVGID_00000174589641154763648730000013782689829752220344_);fill:#92AFDD;" width="1920" height="1080"/>
	<g style="opacity:0.58;clip-path:url(#SVGID_00000174589641154763648730000013782689829752220344_);">
		<path class="st2" d="M2159.3-2.8c0,0,49.1,41.7-22.1,142.6c-71.6,101.4-272.7,221.6-272.7,221.6c-5.4-43.1-29.3-62.8-29.3-62.8
			c-15.8,101.2-74.7,141-74.7,141c39.4-3.2,53.2-16.5,54.8-18.2c-2.6,3.1-45,50.2-202,80.2c-162.4,31.1-332.3,17.2-332.3,17.2
			s110.5,4.7,202.1-4c53.4-5.1,86.5-14.2,86.5-14.2s85.9-28-30.7-55c-114.7-26.6-251.4-45.2-255.7-45.8l40,15.2
			c-135.3-12.4-383.6-64.1-391.3-65.7c73.1,11.1,129.8,11.8,129.8,11.8c-85-41.3-214.7-55-214.7-55l-123.8-1
			c10.5,3.8,28.7,9.6,28.7,9.6L914.4,347C671.6,317.4,499,289,371.3,181.4c-25.4-21.4,41.5-80.2,166-77.4
			C533.7,32.4,348.7-43.2,348.7-43.2l407,9.1c0,0,255.9,115.3,494.4,176.2l-35.9-23.5c0,0,200.3,8.3,377.6,94.7
			c0,0-31.6-48.2-87.5-85.3c-60.7-40.3-115.8-63.5-115.8-63.5l42.2,42.5c0,0-170.9-48.7-349.6-133.9L2159.3-2.8z"/>
		<path class="st3" d="M425.6-41.5c0,0,415.5,208.5,497.9,239c0,0-126.1-9.1-127.4-2.8c-1.3,6.2,91.1,54,295.6,77.7
			c0,0-86-52.1-160.2-72.9c0,0,257,58.3,493.1,62.4c0,0-46.8-65.6-191-115.4L755.7-34.1L602-37.6L425.6-41.5z"/>
		<path class="st3" d="M1227.6,119.4c0,0,88.5,50.4,153.6,80.5c65.1,30.1,277.6,45.6,277.6,45.6S1535.4,153.1,1227.6,119.4z"/>
		<path class="st3" d="M1081.1-26.9c0,0,176.6,92.8,349.6,133.9c0,0-100.8-82.1-223.8-131.1L1081.1-26.9z"/>
		<path class="st3" d="M1075.1-12.1c0,0,94.7,44,160.8,67.9l-39.1-8.9l5.9,8.2c0,0-42.3,10.3-121.8-49.7l4.8-4L1075.1-12.1z"/>
		<path class="st3" d="M1295.2-14.1c0,0,172.6,97.7,408.4,144.1l-67.6-41.2c0,0,275.8,15.5,382.1-14.8c0,0,59.9-27.4,79.2-38
			c15.9-8.8,62-38.9,62-38.9L1295.2-14.1z"/>
		<path class="st3" d="M1158.8,287c0,0,103.2,8.6,147.5,18.5c44.3,10,77.4,28.6,77.4,28.6S1265.3,320.8,1158.8,287z"/>
		<path class="st3" d="M1283.1,399.7c0,0-25.3-11-77.4-22.1c-52-11-116.2-7.1-116.2-7.1s127.4,30.9,233.5,44.3L1283.1,399.7z"/>
		<path class="st3" d="M881.7,385.1l89.1,10.9c0,0,65.9-10.2,101,1.7c35.1,11.9,36.7,20.8,36.7,20.8s65.4,14.1,138.4,24.4
			C1246.9,442.9,1012.3,419.4,881.7,385.1z"/>
		<path class="st3" d="M382.2,144.6c0,0,344.9,70.9,435.7,105.2c90.8,34.3,137.2,66.7,137.2,66.7s-74.6-14.7-165.1-27
			c-133.5-18.2-338.7-32.2-418.8-108.1C357.5,168.4,382.2,144.6,382.2,144.6z"/>
		<path class="st3" d="M1657.6,250.1c0,0,86,7.7,125.9,33c39.9,25.3,24.8,41.3,24.8,41.3S1775.5,283.3,1657.6,250.1z"/>
		<path class="st3" d="M1355.3,521.7c0,0-78.1-17-100.3-17.2c-22.2-0.2-40.1,13.9-40.1,13.9s-43.4,5.8-158.8,3.3
			C1056,521.8,1180.4,532.1,1355.3,521.7z"/>
	</g>
	<path style="clip-path:url(#SVGID_00000174589641154763648730000013782689829752220344_);fill:#606782;" d="M-43.5,107
		c-0.5,0.3-0.9,0.7-1.3,1c-19,16.9-6.4,89.5-6.4,113.5c0.1,44.9,0.3,89.8,0.4,134.7c0.6,172.8,1.1,345.6,1.7,518.4
		c588.6,0.3,1177.3,0.7,1765.9,1c-158.2-97.1-322.8-186.4-500.3-236.8c-95.9-27.2-195.3-43-287.9-80.6c-64.1-26-123.9-62-186.7-91
		c-60.5-28-123.7-49.3-186.7-70.7c-35.9-12.2-71.9-24.3-107.6-37.2c-108.6-39.2-215.6-85.3-313-148.4C107,193-13.1,86.3-43.5,107z"
		/>
	<path style="clip-path:url(#SVGID_00000174589641154763648730000013782689829752220344_);fill:#5B6185;" d="M2027.9,507.3v361.8
		h-784.3c22.9-29.5,56.1-46.8,83.4-71.2c13.5-11.7,23.7-27.2,35.6-40.6c28-33.2,72.6-33.2,109.2-51.9c27.2-14.4,54.6-28.2,81.7-42.9
		c20.6-11.1,44-33.1,67.6-26.5c27.9,7.8,55.9-4.2,83.2-10.9c40.4-6.3,47.5-29.7,83.6-39.4c37.4-15.4,64.2-51.7,107.4-40.8
		c6.4-0.9,11.2-6.7,17.2-9.3c29-5,30.5,3.9,56.3-21.2C1987.4,499.5,2000.9,521.2,2027.9,507.3z"/>
	<g style="clip-path:url(#SVGID_00000174589641154763648730000013782689829752220344_);">
		<g>
			<path class="st7" d="M1522.1,719.1c-0.9,1.9-6.1,3.7-8.2,0c-0.6-1.5,2.6-29.2,4.3-30.4C1519.8,687.6,1522.6,717.9,1522.1,719.1z"
				/>
			<polygon class="st8" points="1516.9,723.1 1517.4,721.2 1518.3,721.2 1518.3,723.1 			"/>
		</g>
		<g>
			<path class="st7" d="M1512.6,693.2c-0.9,1.9-6.1,3.7-8.2,0c-0.6-1.5,2.6-29.2,4.3-30.4C1510.4,661.6,1513.2,692,1512.6,693.2z"/>
			<polygon class="st8" points="1507.5,697.1 1508,695.3 1508.9,695.2 1508.9,697.1 			"/>
		</g>
		<g>
			<path class="st7" d="M1570,696.3c-0.9,1.9-6.1,3.7-8.2,0c-0.6-1.5,2.6-29.2,4.3-30.4C1567.8,664.7,1570.6,695.1,1570,696.3z"/>
			<polygon class="st8" points="1564.9,700.2 1565.3,698.4 1566.2,698.4 1566.2,700.2 			"/>
		</g>
		<g>
			<path class="st7" d="M1577.6,651.8c-0.9,1.9-6.1,3.7-8.2,0c-0.6-1.5,2.6-29.2,4.3-30.4C1575.4,620.2,1578.2,650.6,1577.6,651.8z"
				/>
			<polygon class="st8" points="1572.5,655.7 1572.9,653.9 1573.9,653.9 1573.9,655.7 			"/>
		</g>
		<g>
			<path class="st7" d="M1506.9,728.8c-0.2,4.8-9.6,3.4-10.8,2c-0.7-0.8,1.3-37.2,2.4-39.4C1499.7,689.4,1507.2,724.1,1506.9,728.8z
				"/>
			<polygon class="st8" points="1500.1,735 1500.1,732.1 1501.5,732.2 1501.5,735 			"/>
		</g>
		<g>
			<path class="st7" d="M1494.8,730c-1.7,2-14.6,4.1-13.5-0.4c-0.4-11.1,1.2-31.3,4.4-34.1c0,0,2.2-13.1,4-12.1
				C1491.4,684.3,1496,728,1494.8,730z"/>
			<polygon class="st8" points="1486.2,732.1 1485.8,735 1488.7,735 1488.1,732.1 			"/>
		</g>
		<g>
			<path class="st7" d="M1560.4,680.1c-1.7,2-14.6,4.1-13.5-0.4c-0.4-11.1,1.2-31.3,4.4-34.1c0,0,2.2-13.1,4-12.1
				C1557,634.5,1561.5,678.1,1560.4,680.1z"/>
			<polygon class="st8" points="1551.8,682.2 1551.4,685.1 1554.3,685.1 1553.7,682.2 			"/>
		</g>
		<g>
			<path class="st7" d="M1544.4,705.5c-1.7,2-14.6,4.1-13.5-0.4c-0.4-11.1,1.2-31.3,4.4-34.1c0,0,2.2-13.1,4-12.1
				C1541,659.8,1545.5,703.5,1544.4,705.5z"/>
			<polygon class="st8" points="1535.8,707.6 1535.4,710.5 1538.3,710.5 1537.7,707.6 			"/>
		</g>
		<g>
			<path class="st7" d="M1477.7,731.1c-0.6,1.2-2.6,2.4-5.4,2c0,0-2.2-0.5-2.8-2c-0.3-0.8,0.5-9.8,1.6-17.7
				c0.9-6.4,1.9-12.2,2.7-12.7C1476.9,706,1477.8,730.7,1477.7,731.1z"/>
			<polygon class="st8" points="1472.3,733.1 1471.8,735 1473.6,735 1473.6,733.1 			"/>
		</g>
		<g>
			<path class="st7" d="M1530.1,687.6c-0.6,1.2-2.6,2.4-5.4,2c0,0-2.2-0.5-2.8-2c-0.3-0.8,0.5-9.8,1.6-17.7
				c0.9-6.4,1.9-12.2,2.7-12.7C1529.3,662.6,1530.3,687.2,1530.1,687.6z"/>
			<polygon class="st8" points="1524.7,689.7 1524.2,691.6 1526,691.6 1526,689.7 			"/>
		</g>
	</g>
	<path style="opacity:0.17;clip-path:url(#SVGID_00000174589641154763648730000013782689829752220344_);fill:#A6B8D1;" d="
		M1057.6,742.6c38.4-23.3,293.4,10.3,185-10.1c-108.3-20.5-200-9.1-220.7-9.1c-20.7,0,33.5-32.7,194.5-26.2
		c160.9,6.5,149.8,14.9,254.3,31c106.3,16.4,175,7.5,228.1-2.3c53.1-9.8-29.9-11.1-131.9-18.8c-102-7.7,39-12,244.5-30.5
		c165.9-14.9,111,28.8,124.6,33v48.6c-3.1,0.7-6.2,1.5-9.3,2.4c-63.4,17.4-35.8,19.5,9.3,18.2v4.2c-28.2-0.6-60.7-2.4-96-6.1
		c-166.6-17.5-258.6,43.2-186.9,7.6c71.6-35.6,261.2,1.1,187.1-29.7c-74.1-30.8-215.7-0.6-335.3-4.9
		c-119.6-4.3-189.6-20.6-101.1,10.7c48.3,17.1,85.7,20.1,108,19.3c-47.4,10.5-71-12.5-237.3-34.1c-171.3-22.3-191.2,21.4-252.4,24.7
		C960.7,773.7,1019.2,765.9,1057.6,742.6z"/>
	<g style="clip-path:url(#SVGID_00000174589641154763648730000013782689829752220344_);">
		<path class="st10" d="M1784.8,1088H-194.4c0,0,0-673,0-673c0-1.1,23.5-14.8,26.1-15.2c9.2-1.3,15.4,4.4,24,6.8
			c9.6,2.7,19.7-1.5,28.6-5.9c40.8-20.1,66.2-50.5,101.9-76.1c19-14.1,42.5-4.9,60.3-19.9c15.4-26.1,13.6-29.5,38.9-48.4
			c23.1-21.4,36.6-29.3,46.3-26.5c2.2,0.6,4.1,1.8,5.9,3.4c0,0,0,0,0,0c2.1,2.6,3.6,5.8,5.3,8.8c8.1,13.8,11.7,27.6,17.1,42.5
			c5.6,15.4,14.8,29.2,19.7,44.9c0.6,2,1.2,3.9,1.9,5.7c0,0,0,0,0,0c0.7,2.8,1.2,5.6,1.7,8.4c1.8,13,24,27.7,31.5,38.9
			c0.6,0.9,1.2,1.8,1.8,2.7c0,0,0,0,0,0c3,4.5,5.8,9.3,8.5,14.4c0,0,0.1,0.1,0.1,0.2c6.8,12.5,13.1,26.4,20.2,39.4c0,0,0,0,0,0
			c3.5,6.4,7.2,12.5,11.2,18.2c0,0,0,0.1,0.1,0.1c8.7,12.3,18.9,22.5,32.2,27.9c0,0,0,0,0,0c7.1,2.9,15.2,4.5,24.3,4.3
			c41.7-3.2,74.1-56.8,109.7-76.2c30.2-14.2,61.3-29.2,77.5-60.2c17.1-41.8,61-46.3,95-67.4c17.7-11.7,31-16.1,41.7-15.4
			c24.1,1.6,35.3,29.2,55.4,58c15.9,17.2,35.5,30.5,48.8,50.2c16.5,29,19.7,77.8,66.5,55.1c13.7-1.8,24.7,10.8,32.9,21.9
			c40.3,54.5,84.4,106.1,132.1,154.3c21.6,21.8,45.6,51.9,71.9,67.8c22,13.3,42.1-3.3,63.6,5.7c94.8,39.5,189.6,79.1,284.5,118.6
			c79.4,33.1,158.9,66.1,238.5,98.8C1811.9,975.7,1783.5,913.2,1784.8,1088z"/>
		<path class="st11" d="M1392.8,801.6c0.1,2.4-0.6,4.8-2.4,7.2c-35.5,160-236.1,148.2-366.2,151.1c-74.4,5-154.5,22-219.4-14.7
			c-207.9-173-20.7-117.5,42.9-238.8c-51.2-75.8-262.8-36.4-302.5-119.6c9.6-57.4,160.7-189.4,74.2-230.2
			c-44.7-2.5-50.3-17.2-15.5-46.8c6.4-7.1,19.6-29.1,33.1-39.6c24.1,1.6,35.3,29.2,55.4,58c15.9,17.2,35.5,30.5,48.8,50.2
			c16.5,29,19.7,77.8,66.5,55.1c13.7-1.8,24.7,10.8,32.9,21.9c40.3,54.5,84.4,106.1,132.1,154.3c21.6,21.8,45.6,51.9,71.9,67.8
			c22,13.3,42.1-3.3,63.6,5.7C1203.2,722.5,1298,762.1,1392.8,801.6z"/>
		<path class="st11" d="M225.4,399.5c0-0.1-0.1-0.1-0.1-0.2c-2.8-4.7-5.7-9.5-8.5-14.4c0,0,0,0,0,0c-0.6-0.9-1.2-1.8-1.8-2.7
			c-7.5-11.1-29.8-25.9-31.5-38.9c-0.4-2.9-0.9-5.6-1.6-8.4c0,0,0,0,0,0c-0.6-1.8-1.2-3.7-1.9-5.7c-4.9-15.7-14.1-29.5-19.7-44.9
			c-5.4-14.8-8.9-28.7-17.1-42.5c-1.8-3-3.3-6.2-5.3-8.8c0,0,0,0,0,0c-1.8-1.7-3.8-2.8-5.9-3.4c-22.9,157-10.9,107.7-166.4,172.4
			c37.6,15.1,80,6.1,120.3,10c64.9,6.4,106.9,87.9,156.4,124.3c24.9,18.4,52.7,33.6,73.4,57.1c17.3,20.3,27.1,53.6,59,54.8
			c24.5,5,24.5,28.8,38,44.7c9.1,10.4,21.7,9.7,32.5,17.4c5.7,3.7,7.7,10.7,14.9,12.6c1.5-3.7,0.3-7.9-1.9-11.9
			c-7.7-12.4-18.7-15.9-26.6-27.7c-29-38.6-55.9-78.8-82.8-118.9c-13.5-20.1-27.5-39.9-40.6-60.2c-5.3-8.2-11.8-13.9-18.8-19.2
			c0,0,0,0,0,0c-13.3-5.5-23.5-15.6-32.2-27.9c0,0-0.1-0.1-0.1-0.1c-4.3-5.7-7.9-11.9-11.1-18.2c0,0,0,0,0,0L225.4,399.5z"/>
	</g>
	<g style="clip-path:url(#SVGID_00000174589641154763648730000013782689829752220344_);">
		<g>
			<path class="st7" d="M1184.2,772.2c1.2,2.5,7.9,4.8,10.6,0c0.8-2-3.3-37.9-5.5-39.4C1187.1,731.2,1183.4,770.6,1184.2,772.2z"/>
			<polygon class="st8" points="1190.8,777.3 1190.3,774.9 1189.1,774.8 1189.1,777.3 			"/>
		</g>
		<g>
			<path class="st7" d="M1196.4,738.4c1.2,2.5,7.9,4.8,10.6,0c0.8-2-3.3-37.9-5.5-39.4C1199.3,697.4,1195.7,736.9,1196.4,738.4z"/>
			<polygon class="st8" points="1203.1,743.5 1202.5,741.2 1201.3,741.1 1201.3,743.5 			"/>
		</g>
		<g>
			<path class="st7" d="M1121.9,742.5c1.2,2.5,7.9,4.8,10.6,0c0.8-2-3.3-37.9-5.5-39.4C1124.8,701.5,1121.2,740.9,1121.9,742.5z"/>
			<polygon class="st8" points="1128.6,747.6 1128,745.2 1126.8,745.2 1126.8,747.6 			"/>
		</g>
		<g>
			<path class="st7" d="M1112.1,684.7c1.2,2.5,7.9,4.8,10.6,0c0.8-2-3.3-37.9-5.5-39.4C1115,643.7,1111.3,683.2,1112.1,684.7z"/>
			<polygon class="st8" points="1118.7,689.8 1118.1,687.4 1116.9,687.4 1116.9,689.8 			"/>
		</g>
		<g>
			<path class="st7" d="M1203.8,784.8c0.3,6.2,12.4,4.4,14,2.7c0.9-1-1.7-48.3-3.1-51.1C1213.2,733.5,1203.5,778.6,1203.8,784.8z"/>
			<polygon class="st8" points="1212.7,792.8 1212.7,789 1210.9,789.1 1210.9,792.8 			"/>
		</g>
		<g>
			<path class="st7" d="M1219.5,786.3c2.2,2.6,19,5.3,17.6-0.6c0.5-14.4-1.5-40.6-5.7-44.3c0,0-2.9-17.1-5.1-15.7
				C1224,727,1218.1,783.6,1219.5,786.3z"/>
			<polygon class="st8" points="1230.7,789 1231.3,792.8 1227.5,792.8 1228.3,788.9 			"/>
		</g>
		<g>
			<path class="st7" d="M1134.4,721.5c2.2,2.6,19,5.3,17.6-0.6c0.5-14.4-1.5-40.6-5.7-44.3c0,0-2.9-17.1-5.1-15.7
				C1138.8,662.2,1133,718.9,1134.4,721.5z"/>
			<polygon class="st8" points="1145.6,724.2 1146.1,728 1142.4,728 1143.2,724.2 			"/>
		</g>
		<g>
			<path class="st7" d="M1155.1,754.5c2.2,2.6,19,5.3,17.6-0.6c0.5-14.4-1.5-40.6-5.7-44.3c0,0-2.9-17.1-5.1-15.7
				C1159.6,695.2,1153.7,751.8,1155.1,754.5z"/>
			<polygon class="st8" points="1166.3,757.2 1166.9,761 1163.1,761 1163.9,757.1 			"/>
		</g>
		<g>
			<path class="st7" d="M1241.8,787.7c0.7,1.5,3.4,3.1,7,2.7c0,0,2.8-0.7,3.6-2.7c0.4-1.1-0.6-12.7-2.1-22.9
				c-1.1-8.3-2.5-15.8-3.5-16.5C1242.8,755.1,1241.6,787.1,1241.8,787.7z"/>
			<polygon class="st8" points="1248.8,790.3 1249.5,792.8 1247.1,792.8 1247.1,790.3 			"/>
		</g>
		<g>
			<path class="st7" d="M1173.7,731.3c0.7,1.5,3.4,3.1,7,2.7c0,0,2.8-0.7,3.6-2.7c0.4-1.1-0.6-12.7-2.1-22.9
				c-1.1-8.3-2.5-15.8-3.5-16.5C1174.7,698.7,1173.5,730.7,1173.7,731.3z"/>
			<polygon class="st8" points="1180.7,733.9 1181.4,736.3 1179,736.3 1179,733.9 			"/>
		</g>
	</g>
	<g style="clip-path:url(#SVGID_00000174589641154763648730000013782689829752220344_);">
		<path class="st7" d="M975.8,671.1c1.2,2.5,7.9,4.8,10.6,0c0.8-2-3.3-37.9-5.5-39.4C978.7,630.1,975.1,669.5,975.8,671.1z"/>
		<polygon class="st8" points="982.5,676.1 981.9,673.8 980.7,673.7 980.7,676.1 		"/>
		<path class="st7" d="M988.1,637.3c1.2,2.5,7.9,4.8,10.6,0c0.8-2-3.3-37.9-5.5-39.4C991,596.3,987.3,635.8,988.1,637.3z"/>
		<polygon class="st8" points="994.7,642.4 994.1,640 992.9,640 992.9,642.4 		"/>
		<path class="st7" d="M913.6,641.4c1.2,2.5,7.9,4.8,10.6,0c0.8-2-3.3-37.9-5.5-39.4C916.5,600.4,912.9,639.8,913.6,641.4z"/>
		<polygon class="st8" points="920.3,646.5 919.7,644.1 918.5,644.1 918.5,646.5 		"/>
		<path class="st7" d="M903.7,583.6c1.2,2.5,7.9,4.8,10.6,0c0.8-2-3.3-37.9-5.5-39.4C906.6,542.6,903,582.1,903.7,583.6z"/>
		<polygon class="st8" points="910.4,588.7 909.8,586.3 908.6,586.3 908.6,588.7 		"/>
		<path class="st7" d="M995.5,683.7c0.3,6.2,12.4,4.4,14,2.7c0.9-1-1.7-48.3-3.1-51.1C1004.9,632.4,995.2,677.5,995.5,683.7z"/>
		<polygon class="st8" points="1004.3,691.7 1004.3,687.9 1002.6,688 1002.6,691.7 		"/>
		<path class="st7" d="M1011.2,685.2c2.2,2.6,19,5.3,17.6-0.6c0.5-14.4-1.5-40.6-5.7-44.3c0,0-2.9-17.1-5.1-15.7
			C1015.6,625.9,1009.7,682.5,1011.2,685.2z"/>
		<polygon class="st8" points="1022.4,687.9 1022.9,691.7 1019.2,691.7 1019.9,687.8 		"/>
		<path class="st7" d="M926.1,620.4c2.2,2.6,19,5.3,17.6-0.6c0.5-14.4-1.5-40.6-5.7-44.3c0,0-2.9-17.1-5.1-15.7
			C930.5,561.1,924.6,617.7,926.1,620.4z"/>
		<polygon class="st8" points="937.2,623.1 937.8,626.9 934,626.9 934.8,623.1 		"/>
		<path class="st7" d="M946.8,653.4c2.2,2.6,19,5.3,17.6-0.6c0.5-14.4-1.5-40.6-5.7-44.3c0,0-2.9-17.1-5.1-15.7
			C951.2,594.1,945.4,650.7,946.8,653.4z"/>
		<polygon class="st8" points="958,656.1 958.5,659.9 954.8,659.9 955.6,656 		"/>
		<path class="st7" d="M1033.4,686.6c0.7,1.5,3.4,3.1,7,2.7c0,0,2.8-0.7,3.6-2.7c0.4-1.1-0.6-12.7-2.1-22.9
			c-1.1-8.3-2.5-15.8-3.5-16.5C1034.4,654,1033.2,686,1033.4,686.6z"/>
		<polygon class="st8" points="1040.5,689.2 1041.1,691.7 1038.7,691.7 1038.7,689.2 		"/>
		<path class="st7" d="M965.4,630.1c0.7,1.5,3.4,3.1,7,2.7c0,0,2.8-0.7,3.6-2.7c0.4-1.1-0.6-12.7-2.1-22.9
			c-1.1-8.3-2.5-15.8-3.5-16.5C966.4,597.6,965.2,629.6,965.4,630.1z"/>
		<polygon class="st8" points="972.4,632.8 973.1,635.2 970.7,635.2 970.7,632.8 		"/>
	</g>
	<g style="clip-path:url(#SVGID_00000174589641154763648730000013782689829752220344_);">
		<g>
			<path class="st7" d="M291.8,575.4c1,2.1,6.9,4.1,9.2,0c0.7-1.7-2.9-32.8-4.8-34.2C294.3,539.9,291.1,574.1,291.8,575.4z"/>
			<polygon class="st8" points="297.5,579.8 297,577.8 296,577.8 296,579.8 			"/>
		</g>
		<g>
			<path class="st7" d="M302.3,546.2c1,2.1,6.9,4.1,9.2,0c0.7-1.7-2.9-32.8-4.8-34.2C304.9,510.7,301.7,544.9,302.3,546.2z"/>
			<polygon class="st8" points="308.1,550.6 307.6,548.6 306.6,548.5 306.6,550.6 			"/>
		</g>
		<g>
			<path class="st7" d="M237.8,549.7c1,2.1,6.9,4.1,9.2,0c0.7-1.7-2.9-32.8-4.8-34.2C240.3,514.2,237.2,548.4,237.8,549.7z"/>
			<polygon class="st8" points="243.6,554.1 243.1,552.1 242.1,552.1 242.1,554.1 			"/>
		</g>
		<g>
			<path class="st7" d="M229.3,499.7c1,2.1,6.9,4.1,9.2,0c0.7-1.7-2.9-32.8-4.8-34.2C231.8,464.2,228.6,498.3,229.3,499.7z"/>
			<polygon class="st8" points="235,504.1 234.5,502 233.5,502 233.5,504.1 			"/>
		</g>
		<g>
			<path class="st7" d="M308.8,586.4c0.3,5.4,10.8,3.8,12.1,2.3c0.8-0.9-1.4-41.8-2.7-44.3C316.9,542,308.5,581,308.8,586.4z"/>
			<polygon class="st8" points="316.4,593.3 316.4,590 314.9,590.1 314.9,593.3 			"/>
		</g>
		<g>
			<path class="st7" d="M322.4,587.7c1.9,2.3,16.4,4.6,15.2-0.5c0.4-12.5-1.3-35.2-5-38.4c0,0-2.5-14.8-4.5-13.6
				C326.2,536.3,321.1,585.4,322.4,587.7z"/>
			<polygon class="st8" points="332.1,590 332.5,593.3 329.3,593.3 330,590 			"/>
		</g>
		<g>
			<path class="st7" d="M248.6,531.5c1.9,2.3,16.4,4.6,15.2-0.5c0.4-12.5-1.3-35.2-5-38.4c0,0-2.5-14.8-4.5-13.6
				C252.5,480.2,247.4,529.2,248.6,531.5z"/>
			<polygon class="st8" points="258.3,533.9 258.8,537.2 255.5,537.2 256.2,533.9 			"/>
		</g>
		<g>
			<path class="st7" d="M266.6,560.1c1.9,2.3,16.4,4.6,15.2-0.5c0.4-12.5-1.3-35.2-5-38.4c0,0-2.5-14.8-4.5-13.6
				C270.4,508.7,265.3,557.8,266.6,560.1z"/>
			<polygon class="st8" points="276.3,562.5 276.8,565.7 273.5,565.7 274.2,562.4 			"/>
		</g>
		<g>
			<path class="st7" d="M341.6,588.9c0.6,1.3,3,2.7,6.1,2.3c0,0,2.5-0.6,3.1-2.3c0.4-0.9-0.6-11-1.8-19.9c-1-7.2-2.2-13.7-3-14.3
				C342.5,560.7,341.5,588.4,341.6,588.9z"/>
			<polygon class="st8" points="347.7,591.2 348.3,593.3 346.3,593.3 346.3,591.2 			"/>
		</g>
		<g>
			<path class="st7" d="M282.7,540c0.6,1.3,3,2.7,6.1,2.3c0,0,2.5-0.6,3.1-2.3c0.4-0.9-0.6-11-1.8-19.9c-1-7.2-2.2-13.7-3-14.3
				C283.6,511.8,282.5,539.5,282.7,540z"/>
			<polygon class="st8" points="288.8,542.3 289.4,544.4 287.3,544.4 287.3,542.3 			"/>
		</g>
	</g>
	<path style="opacity:0.17;clip-path:url(#SVGID_00000174589641154763648730000013782689829752220344_);fill:#A6B8D1;" d="
		M1480.3,885.9c-71.3-57.1-544.8,25.3-343.6-24.8c201.1-50.2,371.4-22.3,409.8-22.3s-62.2-80.1-361.1-64.2
		c-298.9,15.8-278.3,36.5-472.2,75.9c-197.4,40.1-325,18.5-423.5-5.6c-98.5-24.1,55.5-27.2,244.9-46.1
		c189.4-18.9-72.5-29.4-453.9-74.8c-308.1-36.6-206.1,70.5-231.4,80.9V924c5.7,1.8,11.5,3.8,17.3,5.9
		c117.6,42.7,66.5,47.7-17.3,44.6v10.4c52.3-1.5,112.7-5.8,178.3-14.9c309.4-42.8,480.1,105.9,347.1,18.7
		c-133-87.2-485,2.6-347.4-72.9c137.7-75.5,400.5-1.5,622.6-12.1c222.1-10.6,352-50.5,187.7,26.2c-89.7,41.9-159.1,49.3-200.6,47.2
		c88.1,25.8,131.8-30.5,440.7-83.6c318.1-54.7,355,52.4,468.8,60.5C1660.2,962,1551.6,942.9,1480.3,885.9z"/>
	<g style="clip-path:url(#SVGID_00000174589641154763648730000013782689829752220344_);">
		<path class="st12" d="M1989.7,486.2c-27.4,242.1-54.7,484.3-82.1,726.5c-278.9-33-563.7-59.5-839.8-95.5
			c0.2-7.1,32.8-19.6,39-22.9c33.8-18,65.7-39.4,96.8-61.7C1352.5,902.5,1566,852,1684.7,691.3c21.7-20.5,43.6-16.3,72-23.1
			c41.6-15.2,47.9-75.7,86.3-97.9c23.5-13.6,55.5-10.3,75.6-28.5C1939,522.1,1951.5,464.9,1989.7,486.2z"/>
		<path class="st13" d="M1943.6,551.1c13.5,36.5-10.7,46.9-42.4,66.5c-33.4,20.6-69.5,35.5-104.3,53.6c-16.2,10-26.1,27.4-44.8,34.6
			c-48.8,9.1-34.3,52.8-73,63.8c-48,15-5.2,19.7-62.1,69.4c-75.7,115.2-284.6,182.3-418.7,200.6c2.8-1.8,4.4-4.1,5.4-6.8
			c148.4-130.5,362.4-179.9,480.7-340.9c9.7-12.6,19.5-14,33.1-16.6c86.2-3.2,69.8-64.4,125.5-104.8c23.5-13.6,55.5-10.3,75.6-28.5
			c19.3-17.7,23-53.7,52.5-59.6C1952.4,502.6,1932.8,521.7,1943.6,551.1z"/>
	</g>
	<path style="opacity:0.17;clip-path:url(#SVGID_00000174589641154763648730000013782689829752220344_);fill:#A6B8D1;" d="
		M871.5,472.2c-40.5-33-309.6,14.6-195.3-14.4c114.3-29,211.1-12.9,232.9-12.9s-35.4-46.3-205.2-37.1
		C534,417,545.7,428.9,435.5,451.7c-112.2,23.2-184.7,10.7-240.7-3.3c-56-13.9,31.6-15.7,139.2-26.6c107.6-10.9-41.2-17-258-43.2
		c-175.1-21.2-117.1,40.8-131.5,46.8v68.9c3.3,1.1,6.5,2.2,9.8,3.4c66.9,24.7,37.8,27.6-9.8,25.8v6c29.7-0.8,64-3.4,101.3-8.6
		c175.9-24.7,272.9,61.2,197.3,10.8c-75.6-50.4-275.7,1.5-197.4-42.1c78.2-43.7,227.6-0.9,353.8-7c126.2-6.1,200.1-29.2,106.7,15.2
		c-51,24.2-90.4,28.5-114,27.3c50,14.9,74.9-17.6,250.5-48.4c180.8-31.6,201.8,30.3,266.4,35C973.7,516.2,912,505.2,871.5,472.2z"/>
	<g style="clip-path:url(#SVGID_00000174589641154763648730000013782689829752220344_);">
		<g>
			<path class="st7" d="M1126.4,1073.3c-1.9,4-8.8,7.9-18,6.8c0,0-7.3-1.7-9.3-6.8c-1.1-2.8,1.6-32.5,5.3-58.7
				c2.9-21.2,6.4-40.4,8.9-42.2C1123.8,989.9,1126.9,1071.8,1126.4,1073.3z"/>
			<path class="st7" d="M1309.5,1073.3c-3.1,6.3-20.3,12.2-27.3,0c-2-5.1,8.5-96.9,14.2-100.9
				C1302.1,968.4,1311.4,1069.3,1309.5,1073.3z"/>
			<path class="st7" d="M1183.4,1069.7c-5.7,6.7-48.6,13.6-45-1.5c-1.2-36.9,3.9-104,14.6-113.4c0,0,7.4-43.7,13.2-40.3
				C1172,917.9,1187.1,1062.9,1183.4,1069.7z"/>
			<path class="st7" d="M1223.6,1065.8c-0.7,15.9-31.8,11.3-35.9,6.8c-2.3-2.5,4.3-123.5,8-130.8
				C1199.5,934.7,1224.3,1049.9,1223.6,1065.8z"/>
			<polygon class="st8" points="1200.9,1086.3 1200.9,1076.7 1205.4,1076.9 1205.4,1086.3 			"/>
			<polygon class="st8" points="1154.7,1076.7 1153.3,1086.3 1162.9,1086.3 1160.9,1076.5 			"/>
		</g>
	</g>
	<g style="clip-path:url(#SVGID_00000174589641154763648730000013782689829752220344_);">
		<g>
			<path class="st7" d="M1497.4,993.2c-3.1,6.5-20.9,12.6-28,0c-2-5.2,8.7-99.8,14.6-103.8C1489.8,885.3,1499.4,989.1,1497.4,993.2z
				"/>
			<polygon class="st8" points="1479.9,1006.6 1481.4,1000.4 1484.6,1000.3 1484.6,1006.6 			"/>
		</g>
		<g>
			<path class="st7" d="M1465.2,904.4c-3.1,6.5-20.9,12.6-28,0c-2-5.2,8.7-99.8,14.6-103.8C1457.6,796.4,1467.2,900.3,1465.2,904.4z
				"/>
			<polygon class="st8" points="1447.7,917.8 1449.2,911.5 1452.4,911.4 1452.4,917.8 			"/>
		</g>
		<g>
			<path class="st7" d="M1661.3,915.1c-3.1,6.5-20.9,12.6-28,0c-2-5.2,8.7-99.8,14.6-103.8C1653.7,807.2,1663.3,911,1661.3,915.1z"
				/>
			<polygon class="st8" points="1643.8,928.5 1645.3,922.3 1648.5,922.2 1648.5,928.5 			"/>
		</g>
		<g>
			<path class="st7" d="M1687.4,762.9c-3.1,6.5-20.9,12.6-28,0c-2-5.2,8.7-99.8,14.6-103.8C1679.7,655,1689.3,758.8,1687.4,762.9z"
				/>
			<polygon class="st8" points="1669.8,776.3 1671.4,770.1 1674.5,770 1674.5,776.3 			"/>
		</g>
		<g>
			<path class="st7" d="M1445.7,1026.4c-0.8,16.3-32.7,11.7-36.9,7c-2.3-2.6,4.4-127.1,8.3-134.5
				C1421,891.5,1446.5,1010.1,1445.7,1026.4z"/>
			<polygon class="st8" points="1422.4,1047.5 1422.4,1037.6 1427,1037.8 1427,1047.5 			"/>
		</g>
		<g>
			<path class="st7" d="M1404.4,1030.4c-5.9,6.9-50,14-46.3-1.5c-1.3-38,4-107,15.1-116.7c0,0,7.6-44.9,13.5-41.4
				C1392.7,874.2,1408.2,1023.4,1404.4,1030.4z"/>
			<polygon class="st8" points="1374.9,1037.6 1373.4,1047.5 1383.4,1047.5 1381.3,1037.4 			"/>
		</g>
		<g>
			<path class="st7" d="M1628.5,859.8c-5.9,6.9-50,14-46.3-1.5c-1.3-38,4-107,15.1-116.7c0,0,7.6-44.9,13.5-41.4
				C1616.8,703.7,1632.3,852.8,1628.5,859.8z"/>
			<polygon class="st8" points="1599.1,867 1597.6,876.9 1607.5,876.9 1605.4,866.8 			"/>
		</g>
		<g>
			<path class="st7" d="M1573.9,946.6c-5.9,6.9-50,14-46.3-1.5c-1.3-38,4-107,15.1-116.7c0,0,7.6-44.9,13.5-41.4
				C1562.2,790.5,1577.7,939.6,1573.9,946.6z"/>
			<polygon class="st8" points="1544.4,953.8 1543,963.7 1552.9,963.7 1550.8,953.6 			"/>
		</g>
		<g>
			<path class="st7" d="M1345.8,1034.1c-2,4.1-9,8.2-18.5,7c0,0-7.5-1.7-9.5-7c-1.1-2.9,1.7-33.4,5.4-60.4c3-21.8,6.6-41.6,9.2-43.4
				C1343.1,948.3,1346.2,1032.6,1345.8,1034.1z"/>
			<polygon class="st8" points="1327.3,1041.1 1325.4,1047.5 1331.8,1047.5 1331.8,1041.1 			"/>
		</g>
		<g>
			<path class="st7" d="M1525,885.5c-2,4.1-9,8.2-18.5,7c0,0-7.5-1.7-9.5-7c-1.1-2.9,1.7-33.4,5.4-60.4c3-21.8,6.6-41.6,9.2-43.4
				C1522.3,799.7,1525.5,884,1525,885.5z"/>
			<polygon class="st8" points="1506.5,892.5 1504.7,898.9 1511,898.9 1511,892.5 			"/>
		</g>
	</g>
</g>
</svg>
